<svg width="150" height="72" fill="none" xmlns="http://www.w3.org/2000/svg"><path d="M76.86 11.875c-1.41-1.113-3.477-1.709-6.379-1.709-1.312-.02-2.643.1-3.935.358a7.894 7.894 0 0 0-2.604 1.252 4.733 4.733 0 0 0-1.49 1.928 5.735 5.735 0 0 0-.438 2.305v.815c-.08.219.08.378.299.378h3.557a.338.338 0 0 0 .298-.298 3.71 3.71 0 0 1 .895-2.147c.596-.675 1.709-1.033 3.338-1.033a6.06 6.06 0 0 1 2.068.298c.457.179.894.417 1.252.735.536.537.854 1.252.894 2.008v1.033c0 .358-.08.716-.219 1.034-.119.278-.298.536-.516.735a1.872 1.872 0 0 1-.597.517 2.68 2.68 0 0 1-.516.298c-.08.08-.378.159-.974.377-.597.219-1.113.438-1.849.676-.735.239-1.49.437-2.225.736-.736.298-1.412.437-2.008.675a4.85 4.85 0 0 0-2.743 2.226 6.438 6.438 0 0 0-.954 3.34v2.305a7.89 7.89 0 0 0 .378 1.927 4.34 4.34 0 0 0 1.252 1.928 6.267 6.267 0 0 0 2.524 1.49 13.89 13.89 0 0 0 4.233.597c1.431.06 2.862-.139 4.234-.596a6.88 6.88 0 0 0 2.584-1.49 4.216 4.216 0 0 0 1.272-1.929 5.832 5.832 0 0 0 .377-1.927V16.188c0-1.69-.735-3.26-2.007-4.313ZM73.74 31.97c-.596.596-1.788.954-3.338.954s-2.664-.299-3.26-.895a3.924 3.924 0 0 1-.894-2.822c0-.517.08-1.113.377-1.55.239-.378.497-.735.815-1.034.298-.218.736-.437 1.113-.675.437-.219 1.113-.378 1.63-.597a11.384 11.384 0 0 1 1.63-.596c.596-.139 1.113-.377 1.63-.517.258-.08.516-.198.735-.377.278-.16.457-.437.517-.735l-.08 6.081a3.882 3.882 0 0 1-.874 2.763ZM57.88 10.166h2.366c.159.02.278.14.298.298v.06l-.815 3.12c0 .16-.14.219-.298.219H57.8c-.735-.02-1.47.1-2.146.378a3.336 3.336 0 0 0-1.252.815c-.259.278-.477.596-.597.954-.08.317-.139.635-.159.953v19.279c.02.199-.139.358-.318.378h-3.597a.34.34 0 0 1-.298-.378V16.169c0-.517.08-1.054.219-1.55.139-.756.516-1.452 1.033-2.008a7.284 7.284 0 0 1 2.524-1.71c1.47-.576 3.08-.834 4.67-.735ZM45.797 29.723v.894a6.44 6.44 0 0 1-.219 1.63 4.323 4.323 0 0 1-1.033 2.007 7.284 7.284 0 0 1-2.524 1.71c-1.491.536-3.081.794-4.671.735-1.59.04-3.18-.199-4.67-.736a6.623 6.623 0 0 1-2.525-1.709 4.231 4.231 0 0 1-1.033-2.007c-.16-.517-.16-1.034-.219-1.55V10.464c-.02-.199.14-.357.318-.377H32.74c.199-.02.358.139.378.338v18.88c.02.477.06.934.159 1.412.119.377.338.735.596 1.033a2.92 2.92 0 0 0 1.252.815c.715.238 1.47.358 2.226.378.775.02 1.57-.1 2.306-.378.477-.14.914-.398 1.252-.735.298-.259.496-.597.596-.974.159-.477.218-.974.218-1.491v-18.9a.351.351 0 0 1 .299-.378h3.557c.199-.02.358.139.378.338v.04l-.16 19.258ZM21.55.587h3.478c.199-.02.358.139.377.318V36.32c.02.199-.139.358-.338.378H21.55c-.199.02-.358-.14-.378-.338V.944c.08-.218.219-.357.378-.357Z" fill="#434343"/><path d="M.86 45.92a.711.711 0 0 1 .676-.675h4.233c.358.02.656.298.676.676v23.412a.711.711 0 0 1-.676.676H1.536a.711.711 0 0 1-.676-.676V45.921ZM12.487 45.543a.676.676 0 0 1 .676-.636h.874L28.148 58.48h.04v-12.56a.67.67 0 0 1 .675-.676h4.234c.358.02.656.298.676.675v23.79a.676.676 0 0 1-.676.636h-.557a1.003 1.003 0 0 1-.457-.179L18.111 56.136h-.04v13.197a.67.67 0 0 1-.675.675h-4.194a.711.711 0 0 1-.675-.675l-.04-23.79ZM50.825 44.907c3.538 0 6.161 1.093 8.546 3.28.278.218.318.635.1.933l-.06.06-2.763 2.882a.624.624 0 0 1-.874 0 7.268 7.268 0 0 0-4.77-1.809c-3.995 0-6.936 3.32-6.936 7.274 0 3.935 2.98 7.175 6.956 7.175 1.729 0 3.398-.596 4.73-1.69a.696.696 0 0 1 .914.04l2.763 2.922a.704.704 0 0 1-.04.954 12.248 12.248 0 0 1-8.586 3.438c-7.035 0-12.72-5.704-12.72-12.72 0-7.015 5.704-12.74 12.74-12.74ZM63.644 45.92a.67.67 0 0 1 .676-.675h4.213c.358.02.656.298.676.676V64.8h8.407a.67.67 0 0 1 .676.677v3.855a.67.67 0 0 1-.676.676H64.32a.67.67 0 0 1-.676-.676V45.921ZM81.074 45.92a.711.711 0 0 1 .676-.675h4.353a.67.67 0 0 1 .675.676v14.31c0 2.484 1.829 4.452 4.353 4.452 2.544 0 4.412-1.988 4.412-4.452V45.92a.67.67 0 0 1 .676-.676h4.352c.358.02.656.298.676.676v14.608c0 5.366-4.531 9.838-10.116 9.838-5.545 0-10.037-4.452-10.037-9.838l-.02-14.608ZM106.931 45.92c0-.357.278-.655.636-.675h8.626c6.817 0 12.401 5.545 12.401 12.342 0 6.857-5.564 12.402-12.401 12.402h-8.626a.675.675 0 0 1-.636-.676V45.921Zm8.904 18.862c3.995 0 6.896-3.14 6.896-7.175 0-3.995-2.901-7.135-6.896-7.135h-3.399v14.31h3.399ZM132.927 45.92a.67.67 0 0 1 .676-.675h14.628a.67.67 0 0 1 .675.676v3.855a.67.67 0 0 1-.675.676h-9.798v4.393h8.069c.357.02.655.298.675.675v3.856a.67.67 0 0 1-.675.676h-8.069v4.77h9.798a.67.67 0 0 1 .675.675v3.856a.67.67 0 0 1-.675.676h-14.628a.67.67 0 0 1-.676-.676V45.921Z" fill="#030542"/><path d="M15.687 11.875c-1.411-1.113-3.478-1.709-6.38-1.709-1.312-.02-2.643.1-3.935.358a6.524 6.524 0 0 0-2.584 1.252 4.734 4.734 0 0 0-1.49 1.928 6.094 6.094 0 0 0-.438 2.305v.895c-.02.198.14.357.318.377H4.696a.338.338 0 0 0 .298-.298 3.71 3.71 0 0 1 .894-2.146c.597-.676 1.71-1.034 3.34-1.034.695-.08 1.41 0 2.086.219.457.179.895.417 1.252.735.537.517.855 1.252.895 2.008v1.033c0 .358-.08.716-.219 1.034-.12.278-.298.536-.517.735a1.871 1.871 0 0 1-.596.517 2.68 2.68 0 0 1-.517.298c-.08.08-.377.159-.954.377-.576.219-1.113.438-1.848.676-.735.239-1.47.437-2.226.736-.755.298-1.43.437-2.027.675a4.915 4.915 0 0 0-2.743 2.226 6.652 6.652 0 0 0-.974 3.34v2.285a7.89 7.89 0 0 0 .378 1.927 4.34 4.34 0 0 0 1.252 1.928 6.266 6.266 0 0 0 2.524 1.491 13.89 13.89 0 0 0 4.233.596c1.431.06 2.862-.139 4.234-.596a7.115 7.115 0 0 0 2.603-1.49 4.028 4.028 0 0 0 1.252-1.928 5.831 5.831 0 0 0 .378-1.928V16.168c0-1.67-.735-3.24-2.007-4.293ZM12.646 31.97c-.596.596-1.71.954-3.34.954-1.629 0-2.742-.299-3.338-.895a3.924 3.924 0 0 1-.894-2.822c0-.537.139-1.073.357-1.55.239-.378.497-.716.815-1.034.298-.218.736-.437 1.113-.675.437-.219 1.113-.378 1.63-.597a11.383 11.383 0 0 1 1.63-.596c.596-.139 1.113-.377 1.63-.517.258-.08.516-.198.735-.377.278-.16.457-.437.517-.735v6.081c.139 1.014-.2 2.007-.855 2.763Z" fill="#434343"/></svg>